<svg width="943" height="97" viewBox="0 0 943 97" fill="none" xmlns="http://www.w3.org/2000/svg">
<path fill-rule="evenodd" clip-rule="evenodd" d="M499.411 1.484C474.891 6.819 460.406 28.651 463.76 55.22C466.605 77.76 480.321 91.888 503.084 95.727C519.987 98.577 536.24 95.218 547.743 86.497C558.365 78.445 563.715 67.383 564.671 51.5C566.234 25.546 552.407 6.585 528.174 1.449C519.953 -0.292998 507.509 -0.277998 499.411 1.484ZM790.763 1.033C777.737 3.226 768.674 9.21 764.366 18.462C760.265 27.267 761.448 41.365 766.788 47.343C769.348 50.209 775.165 53.668 779.582 54.952C781.737 55.578 791.057 56.94 800.294 57.979C820.425 60.243 823.5 61.498 823.5 67.448C823.5 70.491 822.917 71.72 820.681 73.392C818.258 75.203 816.215 75.542 806.181 75.802C795.619 76.074 794.069 75.883 790 73.802C787.04 72.287 785.011 70.388 784.07 68.25L782.639 65H771.345H760.05L760.618 68.25C763.115 82.546 770.956 90.936 785.333 94.697C793.283 96.777 813.464 97.013 821 95.114C832.062 92.327 839.385 87.383 843.413 79.982C851.262 65.561 844.874 47.44 830.225 42.575C827.423 41.644 817.881 40.036 809.021 39.002C788.23 36.576 782.764 34.063 784.369 27.667C785.461 23.316 791.921 20.637 801.5 20.562C805.9 20.528 810.703 20.837 812.173 21.25C815.675 22.232 820.939 26.71 822.061 29.661C822.919 31.918 823.338 32 833.975 32H845L844.99 28.75C844.978 24.622 841.177 16.41 837.161 11.837C833.302 7.44 823.394 2.505 815.566 1.08C808.876 -0.137998 797.841 -0.158998 790.763 1.033ZM57 18.05C42.975 26.813 24.418 38.374 15.762 43.741L0.0230313 53.5L0.0120313 73.857C0.0020313 90.93 0.227031 94.127 1.40503 93.675C2.51503 93.249 51.787 62.871 78.542 46.117L83.584 42.96L105.542 43.23C135.155 43.594 135.137 43.275 106.466 60.308C90.265 69.933 84.66 73.765 83.915 75.723C83.37 77.156 83.054 81.967 83.212 86.414L83.5 94.5H109H134.5V49.213C134.5 10.046 134.297 3.798 133 2.978C132.155 2.445 120.797 2.05 107 2.074L82.5 2.118L57 18.05ZM210.672 2.724C209.49 4.642 176 92.547 176 93.732C176 94.781 178.492 95.004 187.743 94.782L199.486 94.5L202.502 86L205.518 77.5H225.424H245.331L247.915 85.022C249.337 89.16 250.864 93.097 251.309 93.772C252.208 95.137 274.526 95.581 275.342 94.25C275.595 93.837 267.847 73.025 258.125 48L240.448 2.5L225.799 2.224C217.742 2.072 210.935 2.297 210.672 2.724ZM279.419 3.351C279.119 4.131 279.015 19.558 279.187 37.634C279.49 69.481 279.572 70.658 281.808 75.599C286.498 85.96 296.956 93.068 311.337 95.669C330.792 99.188 351.748 93.233 360.001 81.84C365.597 74.115 366 70.954 366 34.786V1.934L354.75 2.217L343.5 2.5L342.998 33.5C342.673 53.558 342.093 65.382 341.354 67C338.665 72.889 332.343 76.004 323.101 75.994C315.134 75.986 310.915 74.539 306.956 70.456L303.5 66.892L303 34.696L302.5 2.5L291.231 2.217C282.238 1.991 279.853 2.22 279.419 3.351ZM377.678 2.656C377.305 3.028 377 7.521 377 12.64V21.947L391.75 22.223L406.5 22.5L406.763 58.783L407.025 95.065L418.263 94.783L429.5 94.5L429.762 58.25L430.025 22H445.049H460.072L459.786 12.25L459.5 2.5L418.928 2.239C396.613 2.095 378.05 2.283 377.678 2.656ZM578 48.63V95.259L605.75 94.693C621.013 94.382 635.588 93.623 638.141 93.006C649.571 90.244 657.455 82.465 660.544 70.901C664.467 56.213 663.233 30.526 658.07 19.391C651.482 5.184 640.876 2.051 599.25 2.017L578 2V48.63ZM676.463 3.237C676.196 3.932 676.096 24.75 676.239 49.5L676.5 94.5H713H749.5L749.786 84.767L750.072 75.034L724.786 74.767L699.5 74.5L699.21 66.25L698.919 58H719.46H740V48.021V38.041L719.75 37.771L699.5 37.5V30V22.5L724.786 22.233L750.072 21.966L749.786 12.233L749.5 2.5L713.223 2.237C684.739 2.031 676.843 2.246 676.463 3.237ZM859.458 3.25C859.194 3.938 859.096 24.75 859.239 49.5L859.5 94.5H870.5H881.5L882 77.144L882.5 59.787L898.478 77.394L914.455 95H927.146C934.126 95 940.57 94.719 941.466 94.375C942.75 93.882 941.558 92.133 935.845 86.125C931.857 81.931 925.413 75.125 921.526 71C917.638 66.875 911.37 60.252 907.596 56.283L900.735 49.065L911.617 37.283C917.603 30.802 925.01 22.8 928.079 19.5C940.847 5.768 942.949 3.282 942.323 2.657C941.962 2.296 935.944 2 928.95 2H916.233L912.437 6.25C910.35 8.588 905.189 14.325 900.969 19C896.749 23.675 891.092 30.051 888.398 33.168C885.704 36.286 883.163 38.873 882.75 38.918C882.337 38.963 882 30.675 882 20.5V2H870.969C863.066 2 859.801 2.355 859.458 3.25ZM525.263 22.574C534.557 25.741 541 36.354 541 48.5C541 59.696 536.102 68.76 527.595 73.306C524.209 75.116 521.855 75.495 514 75.497C505.416 75.5 504.045 75.233 499.784 72.728C493.522 69.046 490.401 64.727 488.422 57C484.51 41.731 490.847 26.817 503.137 22.369C507.983 20.616 519.837 20.725 525.263 22.574ZM231.991 39.891C235.296 49.374 238 57.329 238 57.567C238 57.805 232.375 58 225.5 58C218.625 58 213 57.678 213 57.285C213 56.118 225.385 22.051 225.696 22.362C225.853 22.519 228.685 30.407 231.991 39.891ZM631.782 24.643C637.166 28.577 638.5 33.115 638.5 47.5C638.5 59.371 638.283 60.933 636 65.483C632.094 73.268 629.127 74.483 614 74.492L601.5 74.5L601.232 49.518C601.085 35.778 601.205 23.907 601.5 23.138C601.936 22.004 604.589 21.827 615.55 22.199C626.994 22.587 629.48 22.961 631.782 24.643Z" fill="black"/>
</svg>
