<svg width="186" height="22" viewBox="0 0 186 22" fill="none" xmlns="http://www.w3.org/2000/svg">
<path fill-rule="evenodd" clip-rule="evenodd" d="M2.59582 15.8068V10.805H5.61663C6.37078 10.805 7.22051 10.805 7.78665 11.2766C8.44732 11.7482 8.82439 12.598 8.82439 13.3532C8.82439 14.1084 8.54185 14.769 7.97571 15.2406C7.40957 15.7122 6.55984 15.8068 5.80464 15.8068H2.59582V15.8068ZM2.59582 9.5782V5.14258H5.61663C6.2773 5.14258 6.84238 5.14259 7.40957 5.42618C8.07024 5.80326 8.44732 6.46393 8.44732 7.21913C8.44732 7.8798 8.07024 8.63395 7.59758 9.01207C6.93692 9.57821 5.9937 9.5782 5.14397 9.5782H2.59582V9.5782ZM5.89917 17.1281C7.12598 17.1281 8.16372 17.0336 9.10799 16.2784C10.0512 15.5242 10.4293 14.58 10.4293 13.4477C10.4293 11.7482 9.29705 10.4269 7.69212 10.0498C9.10799 9.67274 10.0512 8.54046 10.0512 7.12459C10.0512 5.99232 9.48506 5.04805 8.63638 4.48192C7.69211 3.91578 6.93692 3.82125 5.89917 3.82125H0.991943V17.1281H5.89917" fill="#100E0D"/>
<path fill-rule="evenodd" clip-rule="evenodd" d="M13.5436 12.1263C13.5436 11.2766 13.6382 10.3334 14.0152 9.67273C14.4868 8.823 15.3366 8.25686 16.2808 8.25686C17.1295 8.25686 17.9793 8.72847 18.4509 9.38914C18.9225 10.2389 19.017 11.1821 19.017 12.1263C19.017 12.975 18.9225 13.8248 18.5454 14.6745C18.0738 15.5242 17.3186 16.0904 16.2808 16.0904C15.3366 16.0904 14.4868 15.6177 14.1098 14.8636C13.6382 14.0138 13.5436 12.975 13.5436 12.1263ZM11.8452 12.1263C11.8452 14.6745 13.1666 17.3172 16.0918 17.3172C19.1115 17.3172 20.7154 14.8636 20.7154 12.1263C20.7154 9.5782 19.3006 7.03006 16.3754 7.03006C13.4491 7.03006 11.8452 9.38914 11.8452 12.1263" fill="#100E0D"/>
<path fill-rule="evenodd" clip-rule="evenodd" d="M23.8308 12.1263C23.8308 11.2766 23.9253 10.3334 24.3024 9.67273C24.6795 8.823 25.6238 8.25686 26.567 8.25686C27.4167 8.25686 28.1719 8.72847 28.6435 9.38914C29.2096 10.2389 29.3042 11.1821 29.3042 12.1263C29.3042 12.975 29.2096 13.8248 28.8326 14.6745C28.3599 15.5242 27.5112 16.0904 26.567 16.0904C25.6238 16.0904 24.774 15.6177 24.397 14.8636C23.9253 14.0138 23.8308 12.975 23.8308 12.1263V12.1263ZM22.1313 12.1263C22.1313 14.6745 23.4527 17.3172 26.379 17.3172C29.3987 17.3172 30.9091 14.8636 30.9091 12.1263C30.9091 9.5782 29.4932 7.03006 26.6615 7.03006C23.7363 7.03006 22.1313 9.38914 22.1313 12.1263Z" fill="#100E0D"/>
<path fill-rule="evenodd" clip-rule="evenodd" d="M39.1186 8.16234L33.7398 15.9013H39.1186V17.1281H31.8523V15.9013L37.1376 8.44593H32.3239V7.31261H39.1186V8.16234" fill="#100E0D"/>
<path d="M47.7073 21.4692H48.9341V0.989521H47.7073V21.4692Z" fill="#100E0D"/>
<path fill-rule="evenodd" clip-rule="evenodd" d="M63.6567 11.9373H59.5982L61.5802 5.6142L63.6567 11.9373ZM62.6179 3.82125H60.825L56.4839 17.1281H57.8998L59.1266 13.2586H64.0338L65.3551 17.1281H66.959L62.6179 3.82125" fill="#100E0D"/>
<path fill-rule="evenodd" clip-rule="evenodd" d="M78.1904 11.1821C78.1904 9.67273 79.3227 8.16233 81.0211 8.16233C82.7206 8.16233 83.7583 9.5782 83.6638 11.1821H78.1904ZM83.7583 14.2029C83.2867 15.3352 82.3425 16.0904 81.1157 16.0904C80.0779 16.0904 78.9446 15.4297 78.473 14.4854C78.0959 13.8248 78.0959 13.0696 78.0959 12.3154H85.2677C85.3622 9.5782 84.0419 7.03006 81.0211 7.03006C78.0959 7.03006 76.491 9.48367 76.491 12.2209C76.491 14.957 78.0014 17.3172 80.9266 17.3172C82.8141 17.3172 84.5135 16.1849 85.1742 14.3909L83.7583 14.2029" fill="#100E0D"/>
<path fill-rule="evenodd" clip-rule="evenodd" d="M88.8546 8.91754H88.9491C89.4207 7.87979 90.6475 7.03007 91.9689 7.03007C93.1957 7.03007 94.1399 7.50167 94.8006 8.54046C95.2722 9.38914 95.1777 10.7105 95.1777 11.6547V17.1281H93.6673V10.9941C93.6673 10.4269 93.7618 9.76622 93.4793 9.20114C93.1011 8.63395 92.4405 8.3514 91.7798 8.3514C90.9311 8.3514 90.2705 8.72848 89.7033 9.29462C89.1371 10.0498 88.9491 10.9941 88.9491 11.9373V17.1281H87.4387V7.31261H88.8546V8.91754" fill="#100E0D"/>
<path fill-rule="evenodd" clip-rule="evenodd" d="M179.266 8.91754C179.737 7.87979 180.964 7.03007 182.285 7.03007C183.512 7.03007 184.455 7.50167 185.117 8.54046C185.589 9.38914 185.589 10.7105 185.589 11.6547V17.1281H184.078V10.9941C184.078 10.4269 184.078 9.76622 183.796 9.20114C183.418 8.63395 182.757 8.3514 182.096 8.3514C181.341 8.3514 180.587 8.72848 180.115 9.29462C179.455 10.0498 179.266 10.9941 179.266 11.9373V17.1281H177.755V7.31261H179.266V8.91754" fill="#100E0D"/>
<path d="M103.86 21.4692H105.087V0.989521H103.86V21.4692Z" fill="#100E0D"/>
<path fill-rule="evenodd" clip-rule="evenodd" d="M122.169 17.1281V10.7105H116.035V17.1281H114.524V3.82125H116.035V9.48368H122.169V3.82125H123.772V17.1281H122.169Z" fill="#100E0D"/>
<path fill-rule="evenodd" clip-rule="evenodd" d="M132.55 12.787C132.55 14.4854 131.323 16.0904 129.53 16.0904C128.302 16.0904 127.359 15.6177 127.359 14.3909C127.359 12.4099 129.53 12.1263 131.323 12.1263H132.55V12.787ZM131.323 10.9941C130.096 10.9941 128.681 11.0875 127.642 11.5602C126.604 12.0318 125.849 13.1641 125.849 14.2964C125.849 16.2784 127.359 17.3172 129.247 17.3172C130.756 17.3172 131.889 16.6565 132.55 15.2406L132.738 17.1281H134.249C134.059 16.4674 133.966 15.7122 133.966 15.0516V11.1821C133.966 10.1443 133.966 8.823 133.211 7.97327C132.456 7.12458 131.323 7.03006 130.284 7.03006C128.492 7.03006 126.416 7.69072 126.132 9.76621L127.454 9.95527C127.736 8.63394 128.963 8.25686 130.096 8.25686C131.795 8.25686 132.55 8.823 132.55 10.6159V10.9941H131.323" fill="#100E0D"/>
<path fill-rule="evenodd" clip-rule="evenodd" d="M138.024 7.31261V9.01207C138.495 7.97328 139.628 7.03007 140.95 7.03007C142.365 7.03007 143.497 8.06781 143.686 9.20114C144.252 7.97328 145.384 7.03007 146.895 7.03007C147.933 7.03007 148.877 7.5962 149.348 8.44594C149.82 9.29462 149.82 10.3334 149.82 11.2766V17.1281H148.311V11.2766C148.311 10.616 148.311 9.86075 148.027 9.29462C147.745 8.63395 147.084 8.25687 146.423 8.25687C145.668 8.25687 144.913 8.72847 144.536 9.38914C143.97 10.1443 143.97 10.8995 143.97 11.8428V17.1281H142.459V10.8995C142.459 10.3334 142.459 9.67274 142.176 9.20114C141.798 8.63395 141.138 8.25687 140.477 8.25687C139.816 8.25687 139.156 8.72848 138.684 9.20114C138.213 9.86076 138.118 10.7105 138.118 11.4657V17.1281H136.608V7.31261H138.024" fill="#100E0D"/>
<path fill-rule="evenodd" clip-rule="evenodd" d="M152.557 7.31262H154.068V17.1271H152.557V7.31262ZM152.463 3.82126H154.161V5.51967H152.463V3.82126Z" fill="#100E0D"/>
<path d="M157.182 17.1281H158.598V3.82125H157.182V17.1281Z" fill="#100E0D"/>
<path d="M68.4695 17.1281H69.8854V3.82125H68.4695V17.1281Z" fill="#100E0D"/>
<path d="M72.9995 17.1281H74.4154V3.82125H72.9995V17.1281Z" fill="#100E0D"/>
<path fill-rule="evenodd" clip-rule="evenodd" d="M166.241 17.1281L164.826 17.3172C162.655 17.3172 161.995 15.9958 161.995 14.1084V8.44593H160.296V7.21912H161.995V4.7655L163.505 4.67097V7.21912H165.675V8.44593H163.505V14.2964C163.505 15.4297 163.882 16.0904 165.109 16.0904L166.241 15.9958V17.1281" fill="#100E0D"/>
<path fill-rule="evenodd" clip-rule="evenodd" d="M168.696 12.1263C168.696 11.2766 168.789 10.3334 169.167 9.67273C169.544 8.823 170.394 8.25686 171.337 8.25686C172.282 8.25686 173.037 8.72847 173.509 9.38914C174.075 10.2389 174.169 11.1821 174.169 12.1263C174.169 12.975 174.075 13.8248 173.698 14.6745C173.225 15.5242 172.376 16.0904 171.337 16.0904C170.489 16.0904 169.639 15.6177 169.262 14.8636C168.789 14.0138 168.696 12.975 168.696 12.1263V12.1263ZM166.996 12.1263C166.996 14.6745 168.318 17.3172 171.243 17.3172C174.264 17.3172 175.773 14.8636 175.773 12.1263C175.773 9.5782 174.358 7.03006 171.526 7.03006C168.507 7.03006 166.996 9.38914 166.996 12.1263Z" fill="#100E0D"/>
</svg>
