<svg width="117" height="41" viewBox="0 0 117 41" fill="none" xmlns="http://www.w3.org/2000/svg">
<path d="M104.595 8.65662C104.595 7.70062 105.044 7.25129 106.001 7.25129H107.125C108.081 7.25129 108.532 7.70062 108.532 8.65662V32.3913C108.532 33.3473 108.081 33.7966 107.125 33.7966H106.001C105.044 33.7966 104.595 33.3473 104.595 32.3913V8.65662ZM104.032 40.5473H109.093C113.988 40.5473 116.405 38.1273 116.405 33.2353V7.8126C116.405 2.91929 113.988 0.50061 109.093 0.50061H104.032C99.1385 0.50061 96.7199 2.91929 96.7199 7.8126V33.2353C96.7199 38.1273 99.1385 40.5473 104.032 40.5473Z" fill="black"/>
<path d="M79.8838 40.5467H84.7211C89.6144 40.5467 92.0331 38.128 92.0331 33.2347V25.892H84.2704V32.3907C84.2704 33.348 83.8211 33.7973 82.8651 33.7973H81.8531C80.8957 33.7973 80.4464 33.348 80.4464 32.3907V8.65601C80.4464 7.70001 80.8957 7.25068 81.8531 7.25068H82.7531C83.7091 7.25068 84.1584 7.70001 84.1584 8.65601V14.1667H91.9198V7.81199C91.9198 2.92 89.5011 0.5 84.6091 0.5H79.8838C74.9904 0.5 72.5731 2.92 72.5731 7.81199V33.2347C72.5731 38.128 74.9904 40.5467 79.8838 40.5467Z" fill="black"/>
<path d="M34.0227 10.4557L35.7667 27.6104H32.28L34.0227 10.4557ZM31.548 34.4716H36.4973L37.116 40.209H44.9333L39.76 0.838318H29.0174L23.8427 40.209H30.9854L31.548 34.4716Z" fill="black"/>
<path d="M57.1192 7.58767H58.8059C59.7619 7.58767 60.2126 8.03833 60.2126 8.993V18.3863C60.2126 19.3423 59.7619 19.793 58.8059 19.793H57.1192V7.58767ZM57.1192 26.541H60.7752C65.6686 26.541 68.0872 24.1237 68.0872 19.2304V8.15031C68.0872 3.25699 65.6686 0.838318 60.7752 0.838318H49.2445V40.209H57.1192V26.541Z" fill="black"/>
<path d="M7.81199 40.5467H12.6494C17.5427 40.5467 19.96 38.128 19.96 33.2347V25.892H12.1987V32.3907C12.1987 33.348 11.7493 33.7973 10.7933 33.7973H9.78002C8.82401 33.7973 8.37466 33.348 8.37466 32.3907V8.65601C8.37466 7.70001 8.82401 7.25068 9.78002 7.25068H10.68C11.636 7.25068 12.0867 7.70001 12.0867 8.65601V14.1667H19.848V7.81199C19.848 2.92 17.4293 0.5 12.536 0.5H7.81199C2.91866 0.5 0.5 2.92 0.5 7.81199V33.2347C0.5 38.128 2.91866 40.5467 7.81199 40.5467Z" fill="black"/>
</svg>
