<svg width="154" height="43" viewBox="0 0 154 43" fill="none" xmlns="http://www.w3.org/2000/svg">
<path fill-rule="evenodd" clip-rule="evenodd" d="M63.6572 35.632C63.2948 35.632 62.5701 35.7528 61.7245 35.7528C59.0671 35.7528 58.1008 34.4242 58.1008 32.8539V21.7416H63.5364C63.8988 21.7416 64.1404 21.5 64.1404 21.0169V14.9775C64.1404 14.6152 63.8988 14.3736 63.5364 14.3736H58.1008V7.00562C58.1008 6.76405 57.98 6.52247 57.6176 6.52247H50.2493C49.887 6.52247 49.7662 6.64326 49.7662 7.00562V14.736C49.7662 14.736 46.0216 15.7022 45.78 15.7022C45.5385 15.823 45.2969 16.0646 45.2969 16.3062V21.1376C45.2969 21.5 45.5385 21.8624 45.9008 21.8624H49.7662V33.4579C49.7662 42.1545 55.5642 43 59.5503 43C61.3622 43 63.5364 42.3961 63.8988 42.2753C64.1404 42.1545 64.2612 41.9129 64.2612 41.6714V36.236C64.1404 35.8736 63.8988 35.632 63.6572 35.632ZM145.071 27.7809C145.071 21.3792 142.534 20.5337 139.877 20.7753C137.823 20.8961 136.132 21.9831 136.132 21.9831V34.4242C136.132 34.4242 137.823 35.632 140.36 35.7528C143.984 35.8736 145.071 34.5449 145.071 27.7809ZM153.405 27.2978C153.405 39.4972 149.54 43 142.897 43C137.219 43 134.2 40.1011 134.2 40.1011C134.2 40.1011 134.079 41.7921 133.837 41.9129C133.716 42.1545 133.596 42.1545 133.354 42.1545H128.281C127.918 42.1545 127.677 41.9129 127.677 41.5506L127.798 2.17416C127.798 1.8118 128.039 1.57022 128.402 1.57022H135.77C136.132 1.57022 136.374 1.8118 136.374 2.17416V15.5815C136.374 15.5815 139.152 13.6489 143.259 13.6489V13.5281C147.366 13.5281 153.405 15.0983 153.405 27.2978ZM123.449 14.4944H116.202C115.839 14.4944 115.598 14.736 115.598 15.2191V34.5449C115.598 34.5449 113.665 35.8736 111.128 35.8736C108.592 35.8736 107.746 34.6657 107.746 32.0084V15.0983C107.746 14.736 107.505 14.4944 107.142 14.4944H99.7739C99.4115 14.4944 99.17 14.736 99.17 15.0983V33.2163C99.17 41.0674 103.398 43 109.196 43C114.027 43 117.893 40.2219 117.893 40.2219C117.893 40.2219 118.013 41.5506 118.134 41.7921C118.255 41.9129 118.497 42.1545 118.738 42.1545H123.328C123.691 42.1545 123.932 41.9129 123.932 41.5506L124.053 15.0983C124.174 14.736 123.811 14.4944 123.449 14.4944ZM42.0355 14.3736H34.6672C34.3048 14.3736 34.0632 14.736 34.0632 15.0983V41.1882C34.0632 41.9129 34.5464 42.1545 35.1504 42.1545H41.7939C42.5187 42.1545 42.6395 41.7921 42.6395 41.1882V15.0983C42.6395 14.736 42.3979 14.3736 42.0355 14.3736ZM38.4117 2.41573C35.7543 2.41573 33.7009 4.58989 33.7009 7.36798C33.7009 10.1461 35.7543 12.3202 38.4117 12.3202C40.9484 12.3202 43.1226 10.1461 43.1226 7.36798C43.1226 4.58989 41.0692 2.41573 38.4117 2.41573ZM95.063 1.57022H87.8155C87.4532 1.57022 87.2116 1.8118 87.2116 2.17416V16.6685H75.8572V2.17416C75.8572 1.8118 75.6156 1.57022 75.2532 1.57022H67.8849C67.5225 1.57022 67.281 1.8118 67.281 2.17416V41.5506C67.281 41.9129 67.6433 42.1545 67.8849 42.1545H75.2532C75.6156 42.1545 75.8572 41.9129 75.8572 41.5506V24.6404H87.2116L87.0908 41.5506C87.0908 41.9129 87.3324 42.1545 87.6947 42.1545H95.063C95.4254 42.1545 95.667 41.9129 95.667 41.5506V2.17416C95.667 1.8118 95.4254 1.57022 95.063 1.57022ZM30.3187 18.9635V39.3764C30.3187 39.4972 30.3187 39.7388 30.0771 39.8596C30.0771 39.8596 25.7286 43 18.7227 43C10.1465 43 0 40.2219 0 21.9831C0 3.74438 8.81779 0 17.5148 0C25.0039 0 28.0237 1.69101 28.5068 2.05337C28.6276 2.17416 28.7484 2.41573 28.7484 2.53652L27.2989 8.81742C27.2989 9.17978 26.9365 9.54214 26.5742 9.42135C25.3662 9.05899 23.4336 8.21348 19.0851 8.21348C14.0118 8.21348 8.57621 9.66292 8.57621 21.5C8.57621 33.2163 13.7702 34.6657 17.394 34.6657C20.5346 34.6657 21.7425 34.3034 21.7425 34.3034V26.0899H16.6693C16.3069 26.0899 16.0653 25.8483 16.0653 25.486V18.9635C16.0653 18.6011 16.3069 18.3596 16.6693 18.3596H29.4732C29.9563 18.3596 30.3187 18.7219 30.3187 18.9635Z" fill="black"/>
</svg>
