<svg width="106" height="43" viewBox="0 0 106 43" fill="none" xmlns="http://www.w3.org/2000/svg">
<path d="M0 0V2.91975H20.3947V0H0ZM23.2709 0V2.91975H52.4248C52.4248 2.91975 49.4179 0 45.4959 0H23.2709ZM58.1772 0V2.91975H75.8264L74.7805 0H58.1772ZM88.377 0L87.3311 2.91975H104.85V0H88.377ZM0 5.70679V8.62654H20.3947V5.70679H0ZM23.2709 5.70679V8.62654H55.8239C55.8239 8.62654 55.4317 6.37037 54.7781 5.70679H23.2709ZM58.1772 5.70679V8.62654H77.7875L76.8723 5.70679H58.1772ZM86.2852 5.70679L85.3701 8.62654H104.85V5.70679H86.2852ZM5.88308 11.4136V14.3333H14.7731V11.4136H5.88308ZM29.154 11.4136V14.3333H38.0439V11.4136H29.154ZM46.6725 11.4136V14.3333H55.5625C55.5625 14.3333 56.0854 12.7407 56.0854 11.4136H46.6725V11.4136ZM64.0603 11.4136V14.3333H79.7485L78.7026 11.4136H64.0603V11.4136ZM84.4549 11.4136L83.4091 14.3333H99.228V11.4136H84.4549ZM5.88308 17.1204V20.0401H14.7731V17.1204H5.88308V17.1204ZM29.154 17.1204V20.0401H51.7711C51.7711 20.0401 53.6014 18.5802 54.2551 17.1204H29.154V17.1204ZM64.0603 17.1204V20.0401H72.9503V18.4475L73.4732 20.0401H89.6844L90.338 18.4475V20.0401H99.228V17.1204H82.4939L81.5788 19.642L80.6636 17.1204H64.0603V17.1204ZM5.88308 22.8272V25.7469H14.7731V22.8272H5.88308ZM29.154 22.8272V25.7469H54.2551C53.6014 24.287 51.7711 22.8272 51.7711 22.8272H29.154ZM64.0603 22.8272V25.7469H72.9503V22.8272H64.0603ZM74.5191 22.8272L75.565 25.7469H87.7233L88.7692 22.8272H74.5191ZM90.2073 22.8272V25.7469H99.0973V22.8272H90.2073ZM5.88308 28.534V31.4537H14.7731V28.534H5.88308ZM29.154 28.534V31.4537H38.0439V28.534H29.154ZM46.6725 28.534V31.4537H56.0854C56.0854 30.1265 55.5625 28.534 55.5625 28.534H46.6725ZM64.0603 28.534V31.4537H72.9503V28.534H64.0603ZM76.4801 28.534L77.526 31.4537H85.6316L86.6775 28.534H76.4801ZM90.338 28.534V31.4537H99.228V28.534H90.338ZM0.130735 34.3735V37.2932H20.5254V34.3735H0.130735ZM23.4016 34.3735V37.2932H54.9088C55.5625 36.6296 55.9547 34.3735 55.9547 34.3735H23.4016ZM58.3079 34.3735V37.2932H72.8195V34.3735H58.3079ZM78.5719 34.3735L79.6178 37.2932H83.8013L84.8472 34.3735H78.5719ZM90.338 34.3735V37.2932H105.111V34.3735H90.338ZM0.130735 40.0802V43H20.5254V40.0802H0.130735ZM23.4016 40.0802V43H45.6266C49.5486 43 52.5556 40.0802 52.5556 40.0802H23.4016ZM58.3079 40.0802V43H72.8195V40.0802H58.3079ZM80.5329 40.0802L81.5788 43H81.7095L82.7554 40.0802H80.5329ZM90.338 40.0802V43H105.111V40.0802H90.338Z" fill="black"/>
</svg>
