<svg width="725" height="169" viewBox="0 0 725 169" fill="none" xmlns="http://www.w3.org/2000/svg">
<path fill-rule="evenodd" clip-rule="evenodd" d="M63.2251 15.75L63.5001 31.5L79.2501 31.775L95.0001 32.051V47.525V63H111.5H128V31.5V0H95.4751H62.9491L63.2251 15.75ZM500.672 79.75C500.378 123.612 499.831 160.963 499.456 162.75L498.773 166H513.826H528.879L529.571 158.979L530.263 151.958L535.464 156.877C546.797 167.596 562.073 171.441 577.54 167.47C595.413 162.88 607.62 151.155 614.421 132.044C617.305 123.94 617.462 122.703 617.481 108C617.502 90.934 616.56 86.246 610.666 74.076C606.825 66.146 597.493 56.289 590.457 52.728C581.455 48.173 574.648 46.727 564.606 47.236C552.503 47.849 545.723 50.51 537.965 57.693L532 63.215V31.608V0H516.602H501.205L500.672 79.75ZM179.5 48.892C170.583 51.492 163.336 55.569 157.812 61.092C152.9 66.005 147.643 75.519 146.399 81.75L145.75 85H160.875C172.989 85 176 84.728 176 83.635C176 81.198 180.244 76.793 184.421 74.896C187.108 73.676 190.859 73.036 195.412 73.022C207.556 72.983 214 78.997 214 90.367V94.694L197.25 95.378C171.666 96.423 160.205 99.665 151.924 108.198C138.173 122.367 139.599 149.13 154.718 160.625C170.48 172.611 197.867 171.382 212.342 158.039C217.302 153.467 217.219 153.418 218.515 161.75L219.176 166H234.167H249.159L248.583 163.25C246.514 153.365 245.773 142.652 245.108 113C244.305 77.242 244.137 76.029 238.704 66.757C233.707 58.231 224.054 51.551 212.307 48.492C204.392 46.43 187.225 46.64 179.5 48.892ZM305.512 48.614C285.596 53.429 269.731 68.05 263.317 87.5C261.054 94.365 260.672 97.274 260.625 108C260.537 128.052 265.259 141.237 276.605 152.622C291.694 167.761 318.041 173.009 341.6 165.566C348.406 163.416 362 156.096 362 154.58C362 154.05 351.137 131.804 350.631 131.298C350.448 131.115 347.377 132.333 343.805 134.004C322.275 144.079 303.033 139.909 295.888 123.618C292.571 116.055 292.092 102.404 294.885 95C297.703 87.528 301.983 82.645 308.515 79.449C318.947 74.345 330.48 75.175 344.007 82.004L349.619 84.836L355.747 72.534L361.875 60.231L359.687 58.184C356.32 55.032 345.819 50.17 338.812 48.518C330.855 46.642 313.462 46.692 305.512 48.614ZM406.848 49.309C378.411 57.962 361.661 85.626 365.842 117.032C367.986 133.134 374.153 145.52 384.71 154.929C406.945 174.747 446.962 173.387 468.027 152.096C479.622 140.377 485 126.247 485 107.5C485 78.725 471.642 58.936 446.022 49.757C441.931 48.291 437.131 47.675 427.5 47.379C416.039 47.028 413.594 47.256 406.848 49.309ZM661.032 49.003C641.347 54.32 630.8 67.027 630.74 85.5C630.705 96.082 633.31 102.254 640.635 108.95C647.017 114.782 652.63 117.064 670.5 121.089C685.73 124.52 688.572 125.551 690.54 128.36C693.577 132.697 691.957 137.45 686.5 140.21C677.752 144.636 663.312 142.717 647.5 135.027C642 132.353 637.189 130.465 636.809 130.832C636.429 131.199 634.027 136.402 631.471 142.392L626.824 153.285L629.662 155.593C638.057 162.422 654.383 167.779 669.5 168.663C695.158 170.164 716.431 159.739 722.941 142.475C724.789 137.574 725.118 135.061 724.773 128.5C723.782 109.64 713.305 100.005 687.735 94.437C671.491 90.901 669.426 90.229 666.045 87.384C660.903 83.058 662.61 76.619 669.605 73.96C676.984 71.155 693.823 73.85 705.349 79.681C708.017 81.03 710.359 81.974 710.555 81.779C710.75 81.583 713.167 76.359 715.924 70.17L720.938 58.917L716.219 55.923C707.455 50.364 697.158 47.788 682 47.364C670.77 47.05 667.244 47.325 661.032 49.003ZM438.423 78.84C447.873 83.946 452.497 93.773 452.379 108.5C452.219 128.494 442.443 139.939 425.5 139.968C413.7 139.989 405.578 134.899 400.819 124.5C398.86 120.222 398.528 117.84 398.515 108C398.498 95.047 400.243 89.481 406.301 83.165C414.378 74.743 427.556 72.969 438.423 78.84ZM571.5 78.853C577.065 81.799 582.174 88.442 584.183 95.343C586.199 102.268 585.656 116.598 583.13 123.121C578.833 134.216 570.445 139.941 558.429 139.978C549.476 140.006 542.088 136.592 537.284 130.208C532.768 124.207 531.5 119.113 531.503 107C531.506 95.135 533.414 89.303 539.301 83.165C547.343 74.779 560.483 73.02 571.5 78.853ZM95.5281 85.25C95.3031 85.938 94.9571 92.8 94.7591 100.5C94.4651 111.959 94.0271 115.326 92.3441 119.051C89.3581 125.661 84.6471 130.535 78.1821 133.705C73.3251 136.085 71.2651 136.49 64.0001 136.495C56.5491 136.499 54.7591 136.13 49.5001 133.5C42.1991 129.849 37.6061 124.148 35.3091 115.886L33.6721 110H17.1941H0.715088L1.32109 115.796C2.80909 130.036 11.2521 146.002 21.9051 154.723C45.4591 174.004 85.0881 173.451 107.69 153.526C114.387 147.621 121.392 137.032 124.705 127.803C127.082 121.182 127.367 118.796 127.759 102.25L128.191 84H112.064C100.048 84 95.8331 84.319 95.5281 85.25ZM214 122.788C214 136.102 205.186 143.979 190.27 143.994C179.828 144.006 174 139.565 174 131.597C174 120.876 181.313 117.491 205.25 117.131L214 117V122.788Z" fill="black"/>
</svg>
