<svg width="193" height="35" viewBox="0 0 193 35" fill="none" xmlns="http://www.w3.org/2000/svg">
<path d="M137.819 24.8969V22.3711C136.61 23.3333 134.192 23.4536 132.016 23.8144C129.84 24.2955 127.906 24.8969 127.906 27.4227C127.906 29.9485 129.84 30.5498 132.137 30.5498C137.698 30.4296 137.819 26.3402 137.819 24.8969ZM48.2366 19.4845H59.4797C58.8752 16.1168 57.3036 14.3127 53.9186 14.3127C49.6873 14.433 48.3575 17.6804 48.2366 19.4845ZM73.1407 19.4845H84.3838C83.7793 16.1168 82.2077 14.3127 78.8227 14.3127C74.4705 14.433 73.1407 17.6804 73.1407 19.4845ZM122.224 18.5223H115.453C114.97 15.8763 113.156 14.433 110.255 14.433C105.782 14.433 104.331 18.7629 104.331 22.2509C104.331 25.7388 105.782 29.8282 110.134 29.8282C113.398 29.8282 115.212 27.9038 115.695 24.8969H121.619C122.828 21.6495 126.334 20.6873 129.719 20.2062C133.95 19.6048 137.94 19.7251 137.94 17.079C137.94 14.1924 135.885 13.8316 133.467 13.8316C130.807 13.8316 129.114 15.9966 128.873 18.5223H122.224ZM192.463 23.6942H174.329C174.571 27.9038 176.626 29.8282 180.494 29.8282C183.275 29.8282 185.572 28.1443 185.935 26.701H191.979C190.045 32.354 185.934 34.8797 180.132 34.8797C173.966 34.8797 169.614 31.7526 168.042 26.8213C167.8 32.835 162.118 34.8797 156.557 34.8797C150.996 34.8797 145.677 32.9553 144.831 27.4227V28.866C144.831 31.0309 145.072 33.3162 145.677 34.2784H138.665C138.423 33.5567 138.181 32.7148 138.181 31.9931C136.005 34.1581 132.741 35 129.719 35C125.367 35 121.74 33.0756 121.256 28.9863C119.322 32.9553 115.333 35 110.255 35C103.727 35 99.1328 31.2715 97.9239 25.6186V34.2784H91.0329V23.8144H73.1407C73.3825 28.0241 75.4377 29.9485 79.3063 29.9485C82.0868 29.9485 84.3838 28.2646 84.7465 26.8213H90.7912C88.8569 32.4742 84.7465 34.8797 79.0645 34.8797C71.69 34.8797 66.9751 30.3093 66.2497 23.6942H48.2366C48.4784 27.9038 50.5336 29.8282 54.4022 29.8282C57.1827 29.8282 59.4797 28.1443 59.8424 26.701H65.8871C63.9528 32.354 59.8424 34.8797 54.0395 34.8797C46.0605 34.8797 41.2247 29.5876 41.2247 22.1306C41.2247 14.9141 46.4232 9.38144 54.0395 9.38144C61.1722 9.38144 65.2826 14.1924 66.1288 20.0859C66.9751 13.8316 71.9317 9.38144 78.8227 9.38144C85.3509 9.38144 89.3404 13.4708 90.6703 18.7629V0.841924H97.5612V19.1237C98.7701 13.3505 103.122 9.38144 110.134 9.38144C115.574 9.38144 120.652 11.9072 121.74 17.1993C122.586 10.8247 128.147 9.38144 133.467 9.38144C138.544 9.38144 144.589 10.4639 144.589 16.2371V26.3402H151.117C151.117 29.2268 153.656 30.4296 156.436 30.4296C158.371 30.4296 160.91 29.7079 160.91 27.3024C160.91 25.2577 158.008 24.5361 153.051 23.5739C149.062 22.732 145.072 21.4089 145.072 17.079C145.072 10.945 150.634 9.26117 156.074 9.26117C161.635 9.26117 166.712 11.0653 167.196 16.9588H160.668C160.426 14.433 158.371 13.7113 155.953 13.7113C154.381 13.7113 152.084 13.9519 152.084 15.9966C152.084 18.4021 155.953 18.7629 159.942 19.6048C162.965 20.3265 165.987 21.1684 167.317 23.5739C167.317 23.0928 167.196 22.6117 167.196 22.1306C167.196 14.9141 172.394 9.38144 180.011 9.38144C188.715 9.38144 192.946 16.3574 192.463 23.6942ZM174.208 19.4845H185.451C184.846 16.1168 183.275 14.3127 179.89 14.3127C175.659 14.433 174.329 17.6804 174.208 19.4845ZM37.3562 2.76632V9.98282H42.4337V13.8316H37.3562V26.4605C37.3562 28.7457 37.9606 29.2268 40.2576 29.2268C40.983 29.2268 41.7083 29.2268 42.4337 28.9863V34.1581C41.2247 34.3986 39.774 34.3986 38.4442 34.3986C34.2129 34.3986 30.4652 33.4364 30.4652 28.6254V13.8316H20.7937V10.7045C20.5519 6.73539 17.5296 5.65292 13.9028 5.65292C11.4849 5.65292 8.58345 6.61512 8.58345 9.50172C8.58345 12.0275 10.276 12.3883 18.9803 14.5533C21.5191 15.1546 29.3772 16.7182 29.3772 24.2955C29.3772 30.4296 24.2996 35 14.8699 35C7.13273 35 0 31.3918 0 23.0928H7.37452C7.37452 27.543 11.0013 29.2268 15.1117 29.2268C17.7714 29.2268 21.8818 28.5052 21.8818 25.0172C21.8818 21.4089 16.6833 20.8076 11.6058 19.4845C6.52826 18.2818 1.32983 16.3574 1.32983 10.1031C1.32983 3.24742 7.97898 0 14.2655 0C21.2773 0 27.8056 2.8866 28.1682 9.98282H30.4652V2.76632H37.3562Z" fill="black"/>
</svg>
