<svg width="269" height="43" viewBox="0 0 269 43" fill="none" xmlns="http://www.w3.org/2000/svg">
<path d="M17.8659 0L0 35.0687H8.29934L26.1718 0H17.8659Z" fill="black"/>
<path d="M120.69 14.0376L119.258 16.8413H119.173C118.581 15.7219 117.666 14.8067 116.547 14.2149C115.415 13.695 114.18 13.4411 112.935 13.473C111.592 13.4448 110.262 13.7374 109.055 14.3265C107.953 14.8728 106.986 15.6579 106.225 16.6246C105.445 17.6183 104.859 18.7498 104.498 19.9601C104.101 21.2354 103.902 22.564 103.907 23.8997C103.898 25.272 104.064 26.6399 104.4 27.9706C104.706 29.1913 105.253 30.3387 106.008 31.3455C106.749 32.3165 107.71 33.0974 108.812 33.6238C110.087 34.2089 111.48 34.4941 112.883 34.4577C114.139 34.4638 115.381 34.1925 116.52 33.6632C117.655 33.1565 118.591 32.2915 119.186 31.201H119.265V33.9718C119.265 37.2548 117.728 39.1327 114.669 39.1327C111.609 39.1327 109.981 37.8195 109.114 36.7427L107.026 40.8726C107.026 40.8726 109.39 43 113.861 43C121.274 43 124.754 39.3953 124.754 33.7223V14.0245L120.69 14.0376ZM118.956 26.467C118.763 27.134 118.451 27.7611 118.037 28.3186C117.627 28.8656 117.1 29.3142 116.494 29.6317C115.826 29.9663 115.087 30.133 114.34 30.1176C113.555 30.1471 112.777 29.9487 112.101 29.5464C111.513 29.1774 111.018 28.676 110.657 28.0822C110.28 27.4651 110.02 26.7841 109.889 26.073C109.737 25.3297 109.66 24.573 109.659 23.8143C109.657 23.0533 109.747 22.2949 109.928 21.5556C110.09 20.8709 110.38 20.2227 110.782 19.645C111.164 19.1023 111.665 18.6534 112.246 18.3318C112.89 17.9903 113.612 17.8229 114.34 17.8459C115.158 17.8139 115.971 17.9949 116.698 18.3712C117.302 18.7103 117.814 19.1928 118.188 19.7763C118.581 20.4065 118.857 21.1028 119.002 21.8314C119.169 22.6392 119.251 23.4623 119.245 24.2871C119.254 25.0238 119.156 25.7579 118.956 26.467Z" fill="black"/>
<path d="M43.6954 6.02751V16.9664H43.8202C44.471 15.822 45.4467 14.8966 46.6238 14.3072C47.6542 13.776 48.7936 13.4906 49.9527 13.4733C51.2531 13.4385 52.5474 13.6617 53.761 14.1299C54.6784 14.4996 55.4839 15.1015 56.0985 15.8764C56.6919 16.686 57.0998 17.6163 57.2935 18.6013C57.5343 19.772 57.6509 20.9648 57.6415 22.16V35.0949H51.8766V23.1909C51.9666 21.8472 51.6849 20.5046 51.0624 19.3104C50.524 18.4503 49.5588 17.9972 48.1799 17.9972C46.6041 17.9972 45.4682 18.47 44.7591 19.4023C44.05 20.3347 43.702 21.8777 43.702 23.9985V35.0686H37.924V6.02751H43.6954Z" fill="black"/>
<path d="M60.0601 19.5281C60.5332 18.2185 61.2809 17.0253 62.2531 16.0284C63.2249 15.055 64.3872 14.2927 65.6674 13.7895C68.5644 12.7368 71.7394 12.7368 74.6365 13.7895C75.9359 14.2794 77.1131 15.0466 78.086 16.0376C79.0589 17.0287 79.8042 18.2198 80.27 19.5281C80.8038 21.0008 81.0663 22.558 81.0448 24.1242C81.0645 25.6775 80.802 27.2215 80.27 28.681C79.7886 29.9788 79.0417 31.1618 78.077 32.1544C77.0987 33.1164 75.9254 33.8575 74.6365 34.3277C71.7325 35.3536 68.5648 35.3536 65.6608 34.3277C64.378 33.8388 63.2141 33.0823 62.2465 32.1084C61.2775 31.1192 60.5299 29.9353 60.0535 28.635C59.5184 27.1764 59.2558 25.6318 59.2787 24.0783C59.2618 22.5268 59.5265 20.9851 60.0601 19.5281ZM65.3128 26.5602C65.458 27.3247 65.7405 28.0566 66.1467 28.7204C66.5314 29.3514 67.0688 29.8752 67.7094 30.2437C68.458 30.6488 69.3013 30.846 70.1519 30.8149C71.0064 30.8433 71.8533 30.6463 72.6076 30.2437C73.2586 29.88 73.8057 29.3555 74.1965 28.7204C74.6003 28.0554 74.8826 27.324 75.0304 26.5602C75.1947 25.7521 75.2761 24.9292 75.2733 24.1046C75.2752 23.2712 75.1938 22.4398 75.0304 21.6226C74.8858 20.8579 74.6032 20.126 74.1965 19.4624C73.7977 18.8246 73.2502 18.2929 72.601 17.9129C71.8491 17.5028 71.0014 17.301 70.1454 17.3285C69.3498 17.2861 68.5575 17.4596 67.8524 17.8306C67.1474 18.2017 66.5557 18.7564 66.1401 19.4362C65.7308 20.0984 65.448 20.8309 65.3063 21.5964C65.1407 22.4133 65.0571 23.2447 65.0568 24.0783C65.0543 24.912 65.138 25.7437 65.3063 26.5602H65.3128Z" fill="black"/>
<path d="M96.802 35.069V32.1734H96.6838C96.0221 33.3175 95.0283 34.2334 93.8342 34.7998C92.7148 35.3276 91.4933 35.6033 90.2558 35.6074C88.9617 35.6486 87.6716 35.4436 86.4541 35.0033C85.5319 34.6487 84.7238 34.0494 84.1166 33.2699C83.5173 32.463 83.1066 31.5318 82.9151 30.5451C82.6742 29.3744 82.5576 28.1815 82.5671 26.9863V14.0383H88.3451V25.9161C88.2552 27.2619 88.5368 28.6065 89.1593 29.8031C89.6977 30.6567 90.6607 31.0944 92.0483 31.1163C93.6197 31.1163 94.7578 30.6479 95.4625 29.7112C96.1651 28.7788 96.5197 27.2358 96.5197 25.115V14.0383H102.291V35.0493L96.802 35.069Z" fill="black"/>
<path d="M132.686 6.02751V16.9664H132.804C133.459 15.8226 134.437 14.8975 135.615 14.3072C136.645 13.776 137.785 13.4906 138.944 13.4733C140.244 13.4385 141.538 13.6617 142.752 14.1299C143.673 14.4893 144.486 15.0821 145.109 15.8502C145.702 16.6608 146.112 17.5905 146.311 18.575C146.549 19.746 146.664 20.9388 146.652 22.1338V35.0687H140.881V23.1909C140.968 21.8474 140.686 20.5056 140.066 19.3104C139.524 18.4349 138.561 17.9972 137.177 17.9972C135.602 17.9972 134.466 18.47 133.763 19.4023C133.061 20.3347 132.706 21.8777 132.706 23.9985V35.0687H126.928V6.02751H132.686Z" fill="black"/>
<path d="M190.713 20.0007C191.181 18.6978 191.925 17.5109 192.892 16.5207C193.86 15.5304 195.029 14.7601 196.321 14.262C199.218 13.2094 202.393 13.2094 205.29 14.262C206.588 14.7547 207.763 15.5228 208.736 16.5135C209.709 17.5042 210.455 18.6939 210.923 20.0007C211.457 21.4734 211.72 23.0306 211.698 24.5968C211.718 26.1501 211.455 27.6941 210.923 29.1536C210.443 30.4532 209.693 31.6368 208.724 32.627C207.751 33.5895 206.582 34.3308 205.296 34.8003C202.392 35.8261 199.225 35.8261 196.321 34.8003C195.037 34.313 193.873 33.5563 192.906 32.581C191.937 31.5908 191.188 30.4073 190.707 29.1076C190.177 27.6477 189.917 26.1038 189.939 24.5509C189.923 23 190.185 21.4589 190.713 20.0007ZM195.966 27.0328C196.114 27.7966 196.396 28.528 196.8 29.193C197.189 29.8228 197.728 30.3462 198.369 30.7163C199.118 31.1213 199.961 31.3186 200.812 31.2875C201.666 31.3159 202.513 31.1189 203.268 30.7163C203.917 30.3507 204.464 29.8267 204.856 29.193C205.26 28.528 205.543 27.7966 205.69 27.0328C205.855 26.2246 205.936 25.4018 205.933 24.5771C205.935 23.7438 205.854 22.9124 205.69 22.0952C205.546 21.3305 205.263 20.5985 204.856 19.935C204.456 19.2986 203.909 18.7673 203.261 18.3855C202.509 17.9754 201.661 17.7736 200.805 17.8011C199.953 17.7708 199.109 17.9728 198.363 18.3855C197.729 18.7649 197.192 19.2864 196.793 19.9088C196.387 20.5723 196.104 21.3043 195.96 22.0689C195.799 22.8866 195.718 23.7177 195.717 24.5509C195.715 25.3842 195.797 26.2155 195.96 27.0328H195.966Z" fill="black"/>
<path d="M235.542 6.02751V21.6085L242.817 14.038H249.652L241.72 21.7661L250.552 35.0687H243.552L237.781 25.6728L235.542 27.8264V35.049H229.764V6.02751H235.542Z" fill="black"/>
<path d="M254.815 29.8419C255.061 30.2758 255.4 30.6502 255.807 30.9384C256.233 31.2384 256.708 31.4607 257.212 31.595C257.75 31.7329 258.304 31.8013 258.86 31.7985C259.291 31.7972 259.72 31.7488 260.14 31.6541C260.568 31.5681 260.979 31.4176 261.362 31.2076C261.724 31.0091 262.036 30.7306 262.274 30.3934C262.538 30.0079 262.667 29.5465 262.642 29.0803C262.642 28.2135 262.064 27.5635 260.915 27.1105C259.342 26.5582 257.731 26.1193 256.096 25.7973C255.255 25.6069 254.434 25.3836 253.633 25.1407C252.87 24.9152 252.142 24.5813 251.473 24.1492C250.858 23.7399 250.344 23.1966 249.97 22.5603C249.57 21.8477 249.372 21.0394 249.398 20.2228C249.349 19.0589 249.624 17.9041 250.193 16.8873C250.704 16.0345 251.425 15.327 252.287 14.8322C253.205 14.3176 254.205 13.9645 255.242 13.7882C256.34 13.5844 257.454 13.4833 258.571 13.4862C259.684 13.4823 260.795 13.5901 261.887 13.8079C262.901 14.0025 263.873 14.376 264.756 14.911C265.6 15.4273 266.316 16.1276 266.851 16.9595C267.446 17.9393 267.789 19.0516 267.849 20.1965H262.36C262.371 19.7417 262.26 19.2921 262.038 18.8948C261.816 18.4975 261.492 18.167 261.099 17.9379C260.264 17.5272 259.343 17.3244 258.413 17.3469C258.06 17.3482 257.707 17.368 257.356 17.406C256.999 17.4434 256.649 17.5341 256.319 17.6752C256.009 17.8033 255.736 18.0064 255.524 18.2662C255.296 18.5595 255.182 18.9258 255.203 19.297C255.194 19.5364 255.24 19.7745 255.338 19.9931C255.436 20.2117 255.583 20.4049 255.767 20.5577C256.205 20.9166 256.71 21.1865 257.251 21.3521C257.938 21.5762 258.638 21.7604 259.346 21.9037C260.134 22.07 260.935 22.2473 261.749 22.4355C262.58 22.6196 263.399 22.8498 264.205 23.1249C264.966 23.3755 265.685 23.7385 266.339 24.2018C266.958 24.64 267.474 25.2094 267.849 25.8695C268.252 26.6258 268.449 27.4751 268.42 28.3317C268.475 29.4692 268.224 30.6005 267.694 31.6084C267.164 32.6163 266.374 33.4641 265.406 34.0638C264.468 34.6523 263.428 35.0599 262.34 35.2654C261.181 35.4943 260.002 35.6086 258.82 35.6068C257.618 35.6099 256.419 35.4889 255.242 35.2457C254.139 35.0248 253.084 34.6066 252.13 34.0113C251.143 33.4072 250.33 32.557 249.77 31.5441C249.211 30.5312 248.924 29.3903 248.939 28.2332H254.428C254.41 28.7945 254.544 29.3502 254.815 29.8419Z" fill="black"/>
<path d="M158.847 30.7546C158.153 30.8392 157.452 30.6663 156.877 30.2687C156.48 29.6937 156.307 28.9929 156.392 28.2989V17.9051H159.615L161.585 14.0377H156.398V7.73442H150.62V14.0377H147.731L145.761 17.8985H150.613V30.3081C150.576 31.1926 150.758 32.0726 151.145 32.8688C151.475 33.4983 151.976 34.0218 152.59 34.379C153.245 34.7436 153.962 34.984 154.704 35.0881C155.545 35.2147 156.395 35.2762 157.245 35.272C157.816 35.272 158.394 35.272 158.992 35.2326C159.537 35.2095 160.081 35.1547 160.62 35.0684V30.5905C160.338 30.65 160.053 30.6916 159.766 30.7152C159.484 30.7415 159.175 30.7546 158.847 30.7546Z" fill="black"/>
<path d="M34.3179 30.7546C33.624 30.8385 32.9234 30.6657 32.3481 30.2687C31.9505 29.6937 31.7777 28.9929 31.8622 28.2989V17.9051H34.8366L36.8064 14.0377H31.8753V7.73442H26.1039V14.0377H23.2083L21.2385 17.8985H26.0973V30.3081C26.0578 31.192 26.2382 32.0719 26.6226 32.8688C26.9541 33.4969 27.4544 34.0199 28.0671 34.379C28.7286 34.7449 29.4521 34.9853 30.201 35.0881C31.042 35.2147 31.8916 35.2762 32.742 35.272C33.3133 35.272 33.8977 35.272 34.4886 35.2326C35.0319 35.2093 35.5734 35.1545 36.1104 35.0684V30.5905C35.8288 30.65 35.5437 30.6916 35.2568 30.7152C34.9548 30.7415 34.6396 30.7546 34.3179 30.7546Z" fill="black"/>
<path d="M225.261 13.4734C220.408 13.4734 218.55 17.9448 218.55 17.9448H218.472V14.0381H212.982V35.0491H218.754V26.2639C218.754 21.1424 219.752 18.8575 224.118 18.8575C224.904 18.8461 225.681 19.0312 226.377 19.3959L228.852 14.5371C227.786 13.8371 226.536 13.4671 225.261 13.4734Z" fill="black"/>
<path d="M185.094 14.0447L181.226 28.2731H181.148L177.569 14.0447H171.955L168.456 28.319H168.377L164.516 14.0447L160.754 21.4182L165.087 35.0688H171.062L174.641 20.952H174.72L178.462 35.0688H184.404L191.029 14.0447H185.094Z" fill="black"/>
</svg>
